<?xml version="1.0" encoding="UTF-8"?>
<svg width="352px" height="72px" viewBox="0 0 352 72" version="1.1" xmlns="http://www.w3.org/2000/svg" xmlns:xlink="http://www.w3.org/1999/xlink">
    <title>Group 2</title>
    <defs>
        <polygon id="path-1" points="2.91596523e-14 -1.50717703e-15 5.90886782 18.9914821 48.8300719 19 54.7317073 0.00851792551"></polygon>
    </defs>
    <g id="Explorations" stroke="none" stroke-width="1" fill="none" fill-rule="evenodd">
        <g id="Artboard" transform="translate(-126, -339)">
            <g id="Group-2" transform="translate(126, 339)">
                <path d="M143.213643,13.269043 C148.285811,13.269043 152.867329,14.4032715 156.958198,16.6717285 C161.049067,18.9401855 164.292451,22.2536621 166.68835,26.6121582 C169.084248,30.9706543 170.282197,36.2849609 170.282197,42.5550781 C170.282197,48.799707 169.084248,54.1012695 166.68835,58.4597656 C164.292451,62.8182617 161.049067,66.1253662 156.958198,68.3810791 C152.867329,70.636792 148.285811,71.7646484 143.213643,71.7646484 C138.090498,71.7646484 133.483491,70.6304199 129.392622,68.3619629 C125.301753,66.0935059 122.058369,62.7800293 119.662471,58.4215332 C117.266572,54.0630371 116.068623,48.7742187 116.068623,42.5550781 C116.068623,36.2849609 117.266572,30.9706543 119.662471,26.6121582 C122.058369,22.2536621 125.301753,18.9401855 129.392622,16.6717285 C133.483491,14.4032715 138.090498,13.269043 143.213643,13.269043 Z M112.971797,14.0336914 L112.971797,25.0446289 L95.7289746,25.0446289 L95.7289746,71 L82.2711621,71 L82.2711621,25.0446289 L65.059,25.044043 L68.496,14.033043 L112.971797,14.0336914 Z M187.486787,14.0336914 L193.106953,39.2288574 C193.667695,41.905127 194.183833,44.7980469 194.655366,47.9076172 C195.126899,51.0171875 195.592061,54.0885254 196.05085,57.1216309 C196.535127,54.0885254 197.038521,51.0171875 197.56103,47.9076172 C198.08354,44.7980469 198.663398,41.905127 199.300605,39.2288574 L205.341328,14.0336914 L219.066768,14.0336914 L225.069258,39.2288574 C225.706465,41.8796387 226.279951,44.7470703 226.789717,47.8311523 C227.299482,50.9152344 227.809248,53.961084 228.319014,56.9687012 C228.752314,53.961084 229.211104,50.9152344 229.695381,47.8311523 C230.179658,44.7470703 230.702168,41.8796387 231.26291,39.2288574 L236.883076,14.0336914 L251.831953,14.0336914 L236.615449,71 L221.32248,71 L214.670039,44.6960937 C214.134785,42.6060547 213.669624,40.4013184 213.274556,38.0818848 C212.879487,35.7624512 212.503535,33.392041 212.146699,30.9706543 C211.789863,33.3410645 211.433027,35.6859863 211.076191,38.0054199 C210.719355,40.3248535 210.273311,42.5550781 209.738057,44.6960937 L203.085615,71 L187.754414,71 L172.53791,14.0336914 L187.486787,14.0336914 Z M297.596162,14.0336914 L297.596162,25.0446289 L271.559883,25.0446289 L271.559883,36.8202148 L295.531611,36.8202148 L295.531611,47.6017578 L271.559883,47.6017578 L271.559883,59.9890625 L297.55793,59.9890625 L297.55793,71 L258.063838,71 L258.063838,14.0336914 L297.596162,14.0336914 Z M329.13791,14.0336914 C335.560957,14.0336914 340.626753,15.7350342 344.335298,19.1377197 C348.043843,22.5404053 349.898115,27.1474121 349.898115,32.9587402 C349.898115,36.8839355 349.037886,40.2229004 347.317427,42.9756348 C345.596968,45.7283691 343.156465,47.8184082 339.995918,49.245752 L351.886201,71 L337.090254,71 L326.652803,51.3867676 L319.312178,51.3867676 L319.312178,71 L305.816133,71 L305.816133,14.0336914 Z M143.213643,25.1210938 C139.059053,25.1210938 135.796553,26.6121582 133.426143,29.5942871 C131.055732,32.576416 129.870527,36.8966797 129.870527,42.5550781 C129.870527,48.1879883 131.055732,52.4891357 133.426143,55.4585205 C135.796553,58.4279053 139.059053,59.9125977 143.213643,59.9125977 C147.342744,59.9125977 150.5925,58.4279053 152.96291,55.4585205 C155.33332,52.4891357 156.518525,48.1879883 156.518525,42.5550781 C156.518525,36.8966797 155.33332,32.576416 152.96291,29.5942871 C150.5925,26.6121582 147.342744,25.1210938 143.213643,25.1210938 Z M326.270479,24.9681641 L319.312178,24.9681641 L319.312178,40.7199219 L326.308711,40.7199219 C332.70627,40.7199219 335.905049,38.1328613 335.905049,32.9587402 C335.905049,27.6316895 332.693525,24.9681641 326.270479,24.9681641 Z" id="Combined-Shape" fill="#FFFFFF"></path>
                <g id="Group" transform="translate(0, 0)">
                    <path d="M21.4815141,54 C23.8718243,59.1049805 25.416858,64.4796536 26.1166153,70.1240193 L26.1167361,70.1240042 C26.1791588,70.6235103 26.6031509,70.99875 27.1065407,70.9999969 L38.8564876,70.9999969 C39.3598774,70.99875 39.7838695,70.6235103 39.8462922,70.1240042 C40.5461703,64.4796536 42.091204,59.1049805 44.4815141,54 L21.4815141,54 Z" id="Mask" fill="#FFFFFF"></path>
                    <g id="Group-9" transform="translate(5.6341, 14)">
                        <mask id="mask-2" fill="white">
                            <use xlink:href="#path-1"></use>
                        </mask>
                        <g id="Mask"></g>
                        <polygon id="Path" fill="#FFFFFF" opacity="0.699999988" mask="url(#mask-2)" points="41.460295 0.00511538462 54.7317073 0.00729886725 49.1711107 19.0051154 38.4268293 19.0037574"></polygon>
                        <polygon id="Rectangle-Copy-5" fill="#FFFFFF" opacity="0.699999988" mask="url(#mask-2)" points="15.8902439 4.56162885e-14 39.6614986 -2.76861867e-15 36.4419864 19 19.1097561 19"></polygon>
                        <polygon id="Rectangle-Copy-12" fill="#FFFFFF" opacity="0.400000006" mask="url(#mask-2)" points="15.8902439 4.56162885e-14 39.6463415 -2.76861867e-15 19.1097561 19"></polygon>
                        <polygon id="Path" fill="#FFFFFF" opacity="0.699999988" mask="url(#mask-2)" points="2.54583858e-14 -1.50717703e-15 14.0680217 0.00226347936 17.1097561 19 5.5825869 18.9987218"></polygon>
                    </g>
                    <path d="M4.10221638,-5.54578844e-16 L61.8977836,3.92442987e-16 C63.3242136,-2.28020677e-16 63.8414716,0.14852098 64.3629531,0.427412332 C64.8844346,0.706303685 65.2936963,1.11556541 65.5725877,1.6370469 C65.851479,2.15852839 66,2.67578638 66,4.10221638 L66,6.89778362 C66,8.32421362 65.851479,8.84147161 65.5725877,9.3629531 C65.2936963,9.88443459 64.8844346,10.2936963 64.3629531,10.5725877 C63.8414716,10.851479 63.3242136,11 61.8977836,11 L4.10221638,11 C2.67578638,11 2.15852839,10.851479 1.6370469,10.5725877 C1.11556541,10.2936963 0.706303685,9.88443459 0.427412332,9.3629531 C0.14852098,8.84147161 -4.1199038e-16,8.32421362 -4.99334027e-16,6.89778362 L3.37198169e-16,4.10221638 C-1.95921847e-16,2.67578638 0.14852098,2.15852839 0.427412332,1.6370469 C0.706303685,1.11556541 1.11556541,0.706303685 1.6370469,0.427412332 C2.15852839,0.14852098 2.67578638,-3.7989155e-16 4.10221638,-5.54578844e-16 Z" id="Mask" fill="#FFFFFF"></path>
                    <path d="M59.2758633,44.0282115 L55.6445737,49.1843283 C55.1307304,49.9139413 54.912,50.1471172 54.6303594,50.3719869 C54.3487187,50.5968566 54.0461143,50.7538599 53.700094,50.8546457 C53.3540738,50.9554316 53.0374863,51 52.1450906,51 L13.8549094,51 C12.9625137,51 12.6459262,50.9554316 12.299906,50.8546457 C11.9538857,50.7538599 11.6512813,50.5968566 11.3696406,50.3719869 C11.088,50.1471172 10.8692696,49.9139413 10.3554263,49.1843283 L6.72413673,44.0282115 L6.70343915,43.9994458 L59.2967865,43.9984458 C59.2899284,44.0082215 59.2829548,44.0181421 59.2758633,44.0282115 Z" id="Combined-Shape" fill="#FFFFFF"></path>
                    <path d="M55.8769992,35 C56.8353844,35 57.1837826,35.083534 57.545319,35.2483123 C57.9068554,35.4130906 58.2032945,35.6591132 58.4318775,35.9840905 C58.6604606,36.3090679 58.8067696,36.6361043 58.983389,37.5780746 L59.7682362,41.7639262 C59.7849064,41.8528342 59.7991181,41.9317958 59.8111742,42.0026585 L6.18882578,42.0026585 C6.20088185,41.9317958 6.21509359,41.8528342 6.23176383,41.7639262 L7.01661102,37.5780746 C7.19323044,36.6361043 7.33953944,36.3090679 7.56812246,35.9840905 C7.79670549,35.6591132 8.09314463,35.4130906 8.45468103,35.2483123 C8.81621744,35.083534 9.16461557,35 10.1230008,35 L55.8769992,35 Z" id="Combined-Shape" fill="#FFFFFF"></path>
                </g>
            </g>
        </g>
    </g>
</svg>